<?xml version="1.0" encoding="utf-8"?>
<!-- Generator: Adobe Illustrator 19.0.0, SVG Export Plug-In . SVG Version: 6.00 Build 0)  -->
<svg version="1.1" id="Layer_1" xmlns="http://www.w3.org/2000/svg" xmlns:xlink="http://www.w3.org/1999/xlink" x="0px" y="0px"
	 viewBox="-4 0 153 68" style="enable-background:new -4 0 153 68;" xml:space="preserve">
<style type="text/css">
	.st0{fill:#5C315E;}
	.st1{fill:#1CCFC9;}
	.st2{fill:#09A8A0;}
	.st3{fill:#02877F;}
	.st4{fill:#026D66;}
</style>
<g>
	<g>
		<path id="XMLID_954_" class="st0" d="M85.1,34.2c4,0,6.7-2.5,6.7-6.1V17.9h-3.9V28c0,1.7-1.1,2.6-2.8,2.6c-1.7,0-2.8-0.9-2.8-2.6
			V17.9h-3.9V28C78.4,31.6,81.1,34.2,85.1,34.2z"/>
		<rect id="XMLID_955_" x="94.8" y="17.9" class="st0" width="3.9" height="16"/>
		<path id="XMLID_958_" class="st0" d="M137.3,32.1V29v-1.4h1.7h1.7c3.1,0,5.2-2,5.2-4.9c0-2.8-2.1-4.8-5.2-4.8h-3.4h-3.9V21v3.5
			v3.1v6.3h3.9V32.1z M137.3,21.3V21h0.7h1.9c1.3,0,2,0.6,2,1.7c0,1.1-0.7,1.8-2,1.8H138h-0.7V21.3z"/>
		<polygon id="XMLID_959_" class="st0" points="120.1,22.6 120.1,17.9 116.2,17.9 116.2,24.3 116.2,27.6 116.2,33.9 120.1,33.9 
			120.1,30.6 120.1,27.6 120.1,27.6 125.9,27.6 125.9,27.6 125.9,30.6 125.9,33.9 129.8,33.9 129.8,27.6 129.8,24.3 129.8,17.9 
			125.9,17.9 125.9,22.6 125.9,24.3 120.1,24.3 		"/>
		<path id="XMLID_962_" class="st0" d="M101.9,17.9V21v3.5v3.1v6.3h3.9v-1.8V29v-1.4h1.7h1.7c3.1,0,5.2-2,5.2-4.9
			c0-2.8-2.1-4.8-5.2-4.8h-3.4H101.9z M106.5,21h1.9c1.3,0,2,0.6,2,1.7c0,1.1-0.7,1.8-2,1.8h-1.8h-0.7v-3.3V21H106.5z"/>
		<path id="XMLID_963_" class="st0" d="M79,39.5v2.8c0,1.2,0.6,1.8,1.9,1.8c1.2,0,1.9-0.7,1.9-1.9v-2.7h-0.9v2.8
			c0,0.7-0.3,1.1-1,1.1c-0.7,0-1-0.4-1-1.1v-2.7H79z"/>
		<polygon id="XMLID_964_" class="st0" points="83.9,39.5 83.9,44 84.8,44 84.8,41.8 86.4,44 87.5,44 85.7,41.6 87.4,39.5 
			86.4,39.5 84.8,41.4 84.8,39.5 		"/>
		<path id="XMLID_967_" class="st0" d="M89.1,42.1L89.1,42.1c0.3,0,0.3,0,0.7,0.6l0.8,1.3h1.1l-0.9-1.3c-0.2-0.4-0.4-0.6-0.5-0.6v0
			c0.6-0.1,1.1-0.5,1.1-1.2c0-0.9-0.6-1.3-1.7-1.3h-1.5V44h1V42.1z M89.1,40.2h0.5c0.6,0,0.8,0.2,0.8,0.6c0,0.4-0.2,0.6-0.7,0.6
			h-0.5V40.2z"/>
		<path id="XMLID_970_" class="st0" d="M93.8,39.5L92,44h1l0.3-0.9h1.8l0.3,0.9h1l-1.8-4.5H93.8z M93.6,42.4l0.4-1.1
			c0.1-0.4,0.2-0.7,0.2-0.8h0c0,0.1,0.1,0.4,0.2,0.8l0.4,1.1H93.6z"/>
		<rect id="XMLID_971_" x="97.1" y="39.5" class="st0" width="1" height="4.5"/>
		<path id="XMLID_972_" class="st0" d="M99.2,39.5V44h0.9v-2.6c0-0.3,0-0.5,0-0.6h0c0.1,0.1,0.2,0.3,0.4,0.7l1.8,2.5h0.9v-4.5h-0.9
			v2.4c0,0.3,0,0.7,0,0.7h0c0-0.1-0.2-0.4-0.5-0.8l-1.6-2.4H99.2z"/>
		<rect id="XMLID_973_" x="104.3" y="39.5" class="st0" width="1" height="4.5"/>
		<path id="XMLID_976_" class="st0" d="M107.6,39.5l-1.7,4.5h1l0.3-0.9h1.8l0.3,0.9h1l-1.8-4.5H107.6z M107.4,42.4l0.4-1.1
			c0.1-0.4,0.2-0.7,0.2-0.8h0c0,0.1,0.1,0.4,0.2,0.8l0.4,1.1H107.4z"/>
		<path id="XMLID_977_" class="st0" d="M114.9,44v-4.5H114v2.4c0,0.3,0,0.7,0,0.7h0c0-0.1-0.2-0.4-0.5-0.8l-1.6-2.4h-1V44h0.9v-2.6
			c0-0.3,0-0.5,0-0.6h0c0.1,0.1,0.2,0.3,0.4,0.7L114,44H114.9z"/>
		<rect id="XMLID_978_" x="117.3" y="39.5" class="st0" width="1" height="4.5"/>
		<path id="XMLID_979_" class="st0" d="M123.4,44v-4.5h-0.9v2.4c0,0.3,0,0.7,0,0.7h0c0-0.1-0.2-0.4-0.5-0.8l-1.6-2.4h-1V44h0.9v-2.6
			c0-0.3,0-0.5,0-0.6h0c0.1,0.1,0.2,0.3,0.4,0.7l1.8,2.5H123.4z"/>
		<path id="XMLID_980_" class="st0" d="M125.5,43.3c-0.5,0-0.9-0.3-1-0.3l-0.4,0.7c0.2,0.2,0.7,0.5,1.4,0.5c1,0,1.6-0.5,1.6-1.4
			c0-0.8-0.6-1.1-1.2-1.4c-0.5-0.2-0.8-0.3-0.8-0.7c0-0.3,0.2-0.5,0.6-0.5c0.4,0,0.7,0.2,0.9,0.3l0.4-0.7c-0.2-0.1-0.6-0.4-1.3-0.4
			c-0.8,0-1.5,0.5-1.5,1.3c0,0.7,0.4,1.1,1,1.4c0.5,0.3,1,0.4,1,0.8C126.3,43.1,126,43.3,125.5,43.3z"/>
		<polygon id="XMLID_981_" class="st0" points="128.8,44 129.8,44 129.8,40.3 131.1,40.3 131.1,39.5 127.6,39.5 127.6,40.3 
			128.8,40.3 		"/>
		<rect id="XMLID_982_" x="131.7" y="39.5" class="st0" width="1" height="4.5"/>
		<polygon id="XMLID_983_" class="st0" points="135.5,44 135.5,40.3 136.7,40.3 136.7,39.5 133.3,39.5 133.3,40.3 134.5,40.3 
			134.5,44 		"/>
		<path id="XMLID_984_" class="st0" d="M140.3,42.2c0,0.7-0.3,1.1-1,1.1c-0.7,0-1-0.4-1-1.1v-2.7h-1v2.8c0,1.2,0.6,1.8,1.9,1.8
			c1.2,0,1.9-0.7,1.9-1.9v-2.7h-0.9V42.2z"/>
		<polygon id="XMLID_985_" class="st0" points="141.7,40.3 143,40.3 143,44 144,44 144,40.3 145.2,40.3 145.2,39.5 141.7,39.5 		"/>
		<polygon id="XMLID_986_" class="st0" points="146.8,42 148.2,42 148.2,41.3 146.8,41.3 146.8,40.3 148.4,40.3 148.4,39.5 
			145.8,39.5 145.8,44 148.5,44 148.5,43.2 146.8,43.2 		"/>
		<path id="XMLID_989_" class="st0" d="M83.4,49.3c0-1.2-0.8-2.3-2.3-2.3c-1.5,0-2.3,1.1-2.3,2.4c0,1.2,0.8,2.3,2.4,2.3
			C82.6,51.7,83.4,50.6,83.4,49.3z M81.1,50.9c-0.9,0-1.3-0.7-1.3-1.6c0-0.8,0.4-1.6,1.3-1.6c0.9,0,1.3,0.7,1.3,1.6
			C82.4,50.2,82,50.9,81.1,50.9z"/>
		<path id="XMLID_990_" class="st0" d="M85.5,49.1l1.8,2.5h0.9v-4.5h-0.9v2.4c0,0.3,0,0.7,0,0.7h0c0-0.1-0.2-0.4-0.5-0.8l-1.6-2.4
			h-1v4.5h0.9V49c0-0.3,0-0.5,0-0.6h0C85.2,48.5,85.3,48.7,85.5,49.1z"/>
		<path id="XMLID_993_" class="st0" d="M90.6,51.6h1V50H92c1.1,0,1.8-0.5,1.8-1.5c0-1-0.7-1.4-1.7-1.4h-1.5V51.6z M91.6,47.8H92
			c0.6,0,0.8,0.3,0.8,0.7c0,0.5-0.3,0.8-0.9,0.8h-0.4V47.8z"/>
		<path id="XMLID_994_" class="st0" d="M98.3,49.8v-2.7h-0.9v2.8c0,0.7-0.3,1.1-1,1.1c-0.7,0-1-0.4-1-1.1v-2.7h-1v2.8
			c0,1.2,0.6,1.8,1.9,1.8C97.7,51.7,98.3,51,98.3,49.8z"/>
		<path id="XMLID_997_" class="st0" d="M102.5,48.2c0-0.9-0.7-1.1-1.6-1.1h-1.5v4.5h1.5c1,0,1.8-0.3,1.8-1.3c0-0.6-0.5-1-1-1.1v0
			C102.2,49.1,102.5,48.8,102.5,48.2z M100.4,47.8h0.5c0.5,0,0.7,0.2,0.7,0.5c0,0.4-0.2,0.6-0.7,0.6h-0.4V47.8z M101.7,50.3
			c0,0.4-0.3,0.6-0.8,0.6h-0.5v-1.2h0.5C101.5,49.6,101.7,49.8,101.7,50.3z"/>
		<polygon id="XMLID_999_" class="st0" points="103.5,51.6 106.2,51.6 106.2,50.8 104.5,50.8 104.5,47.1 103.5,47.1 		"/>
		<rect id="XMLID_1000_" x="106.9" y="47.1" class="st0" width="1" height="4.5"/>
		<path id="XMLID_1001_" class="st0" d="M111.1,47.8c0.4,0,0.7,0.1,0.9,0.3l0.4-0.7c-0.4-0.2-0.8-0.4-1.4-0.4
			c-1.5,0-2.3,1.1-2.3,2.3c0,1.2,0.8,2.4,2.3,2.4c0.7,0,1.2-0.3,1.4-0.5l-0.4-0.7c-0.2,0.2-0.5,0.3-1,0.3c-0.9,0-1.3-0.7-1.3-1.6
			C109.8,48.5,110.2,47.8,111.1,47.8z"/>
		<polygon id="XMLID_1002_" class="st0" points="117.6,48.9 115.5,48.9 115.5,47.1 114.6,47.1 114.6,51.6 115.5,51.6 115.5,49.6 
			117.6,49.6 117.6,51.6 118.5,51.6 118.5,47.1 117.6,47.1 		"/>
		<polygon id="XMLID_1003_" class="st0" points="122.2,47.9 122.2,47.1 119.6,47.1 119.6,51.6 122.3,51.6 122.3,50.8 120.6,50.8 
			120.6,49.6 122,49.6 122,48.9 120.6,48.9 120.6,47.9 		"/>
		<path id="XMLID_1006_" class="st0" d="M124.5,47.1l-1.7,4.5h1l0.3-0.9h1.8l0.3,0.9h1l-1.8-4.5H124.5z M124.3,50l0.4-1.1
			c0.1-0.4,0.2-0.7,0.2-0.8h0c0,0.1,0.1,0.4,0.2,0.8l0.4,1.1H124.3z"/>
		<polygon id="XMLID_1007_" class="st0" points="128.8,47.1 127.9,47.1 127.9,51.6 130.5,51.6 130.5,50.8 128.8,50.8 		"/>
		<polygon id="XMLID_1008_" class="st0" points="130.3,47.9 131.6,47.9 131.6,51.6 132.6,51.6 132.6,47.9 133.8,47.9 133.8,47.1 
			130.3,47.1 		"/>
		<polygon id="XMLID_1009_" class="st0" points="137.4,48.9 135.4,48.9 135.4,47.1 134.4,47.1 134.4,51.6 135.4,51.6 135.4,49.6 
			137.4,49.6 137.4,51.6 138.4,51.6 138.4,47.1 137.4,47.1 		"/>
		<path id="XMLID_1012_" class="st0" d="M79,54.7v4.5h1v-1.6h0.4c1.1,0,1.8-0.5,1.8-1.5c0-1-0.7-1.4-1.7-1.4H79z M81.2,56.1
			c0,0.5-0.3,0.7-0.9,0.7H80v-1.5h0.4C81,55.4,81.2,55.7,81.2,56.1z"/>
		<path id="XMLID_1015_" class="st0" d="M85.1,59.3c1.5,0,2.3-1.1,2.3-2.4c0-1.2-0.8-2.3-2.3-2.3c-1.5,0-2.3,1.1-2.3,2.4
			C82.7,58.2,83.6,59.3,85.1,59.3z M85.1,55.4c0.9,0,1.3,0.7,1.3,1.6s-0.4,1.6-1.3,1.6c-0.9,0-1.3-0.7-1.3-1.6
			C83.8,56.1,84.2,55.4,85.1,55.4z"/>
		<polygon id="XMLID_1016_" class="st0" points="90.9,58.4 89.2,58.4 89.2,54.7 88.3,54.7 88.3,59.2 90.9,59.2 		"/>
		<rect id="XMLID_1017_" x="91.6" y="54.7" class="st0" width="1" height="4.5"/>
		<path id="XMLID_1018_" class="st0" d="M95.8,55.4c0.4,0,0.7,0.1,0.9,0.3l0.4-0.7c-0.4-0.2-0.8-0.4-1.4-0.4c-1.5,0-2.3,1.1-2.3,2.3
			c0,1.2,0.8,2.4,2.3,2.4c0.7,0,1.2-0.3,1.4-0.5l-0.4-0.7c-0.2,0.2-0.5,0.3-1,0.3c-0.9,0-1.3-0.7-1.3-1.6
			C94.5,56.1,95,55.4,95.8,55.4z"/>
		<polygon id="XMLID_1019_" class="st0" points="97.6,54.7 99.1,57.5 99.1,59.2 100,59.2 100,57.5 101.5,54.7 100.6,54.7 99.6,56.6 
			99.6,56.6 98.7,54.7 		"/>
	</g>
	<g id="XMLID_179_">
		<g id="XMLID_4644_">
			<g id="XMLID_175_">
				<path id="XMLID_176_" class="st1" d="M56.7,45.8c-1.8-1.3-4.1-1.3-5.9-0.2L35.9,35.1l7.6-1.3l-0.8-4.6l-7.6,1.3l10.4-14.9
					c2.1,0.4,4.2-0.4,5.5-2.3c1.7-2.5,1.1-6-1.4-7.7s-6-1.1-7.7,1.4c-1.3,1.8-1.3,4.1-0.2,5.9L31.3,27.8L28.1,9.9
					c1.7-1.2,2.7-3.3,2.3-5.5c-0.5-3-3.4-5-6.4-4.5s-5,3.4-4.5,6.4c0.4,2.2,2,3.8,4,4.4l3.2,17.9l-6.3-4.4L17.7,28l6.3,4.4L6.1,35.6
					c-1.2-1.7-3.3-2.7-5.5-2.3c-3,0.5-5,3.4-4.5,6.4s3.4,5,6.4,4.5c2.2-0.4,3.8-2,4.4-4L24.8,37L14.4,52c-2.1-0.4-4.2,0.4-5.5,2.3
					c-1.7,2.5-1.1,6,1.4,7.7s6,1.1,7.7-1.4c1.3-1.8,1.3-4.1,0.2-5.9l10.4-14.9l3.2,17.9c-1.7,1.2-2.7,3.3-2.3,5.5
					c0.5,3,3.4,5,6.4,4.5s5-3.4,4.5-6.4c-0.4-2.2-2-3.8-4-4.4l-3.2-18l14.9,10.4c-0.4,2.1,0.4,4.2,2.3,5.5c2.5,1.7,6,1.1,7.7-1.4
					C59.8,51,59.2,47.5,56.7,45.8z"/>
				<circle id="XMLID_4751_" class="st1" cx="58.3" cy="28.8" r="5.5"/>
				<circle id="XMLID_4752_" class="st1" cx="6.3" cy="17.2" r="5.5"/>
			</g>
		</g>
		<g id="XMLID_5168_">
			<path id="XMLID_1605_" class="st2" d="M22.6,5.8l0.9,4.9c0,0,0.7,0.4,2.4,0.1c1.6-0.2,2.2-1,2.2-1L27.2,5L22.6,5.8z"/>
			<path id="XMLID_183_" class="st2" d="M44.6,8.8l-2.9,4.1c0,0,0.2,0.7,1.6,1.8c1.3,0.9,2.2,0.9,2.2,0.9l2.8-4L44.6,8.8z"/>
			<path id="XMLID_185_" class="st2" d="M1.9,41.1l4.9-0.8c0,0,0.4-0.7,0.1-2.4c-0.2-1.6-1-2.2-1-2.2L1,36.5L1.9,41.1z"/>
			<path id="XMLID_187_" class="st2" d="M15.3,58.8l2.9-4.1c0,0-0.2-0.7-1.6-1.8c-1.3-0.9-2.2-0.8-2.2-0.8l-2.8,4.1L15.3,58.8z"/>
			<path id="XMLID_189_" class="st2" d="M37.2,61.9l-0.9-5c0,0-0.7-0.4-2.4-0.1c-1.6,0.2-2.2,1-2.2,1l0.8,4.9L37.2,61.9z"/>
			<path id="XMLID_190_" class="st2" d="M54.9,48.5l-4-3c0,0-0.7,0.2-1.8,1.6c-1,1.3-0.9,2.2-0.9,2.2l4,2.9L54.9,48.5z"/>
			<g id="XMLID_5167_">
				<g id="XMLID_181_">
					<polygon id="XMLID_1447_" class="st2" points="33.2,33.2 35.9,35.1 32.6,35.6 32.4,34.3 					"/>
					<polygon id="XMLID_1444_" class="st2" points="26.7,34.3 24,32.5 27.2,31.9 27.5,33.2 					"/>
					<polygon id="XMLID_1390_" class="st2" points="33.2,33.2 35.1,30.5 31.8,31.1 32.1,32.4 					"/>
					<polygon id="XMLID_192_" class="st2" points="26.7,34.3 24.8,37 28,36.5 27.8,35.1 					"/>
				</g>
				<g id="XMLID_1448_">
					<polygon id="XMLID_1592_" class="st2" points="30.5,37 28.6,39.7 28,36.5 29.4,36.2 					"/>
					<polygon id="XMLID_4767_" class="st2" points="29.4,30.5 31.2,27.8 31.8,31 30.5,31.3 					"/>
					<polygon id="XMLID_1573_" class="st2" points="29.4,30.5 26.7,28.6 27.2,31.9 28.6,31.6 					"/>
					<polygon id="XMLID_1478_" class="st2" points="30.5,37 33.2,38.9 32.6,35.7 31.3,35.9 					"/>
				</g>
				<g id="XMLID_4768_">
					<polygon id="XMLID_4769_" class="st3" points="27.8,35.1 28,36.5 29.4,36.2 					"/>
					<polygon id="XMLID_4770_" class="st3" points="32.1,32.4 31.8,31.1 30.5,31.3 					"/>
				</g>
				<g id="XMLID_4804_">
					<polygon id="XMLID_4818_" class="st3" points="29.4,36.2 30.5,37 31.3,35.9 					"/>
					<polygon id="XMLID_4805_" class="st3" points="30.5,31.3 29.4,30.5 28.6,31.6 					"/>
				</g>
				<g id="XMLID_4942_">
					<polygon id="XMLID_5162_" class="st3" points="31.3,35.9 32.6,35.6 32.4,34.3 					"/>
					<polygon id="XMLID_4943_" class="st3" points="28.6,31.6 27.2,31.9 27.5,33.2 					"/>
				</g>
				<g id="XMLID_5164_">
					<polygon id="XMLID_5166_" class="st3" points="32.4,34.3 33.2,33.2 32.1,32.4 					"/>
					<polygon id="XMLID_5165_" class="st3" points="27.5,33.2 26.7,34.3 27.8,35.1 					"/>
				</g>
				<polygon id="XMLID_5163_" class="st4" points="27.5,33.2 27.8,35.1 29.4,36.2 31.3,35.9 32.4,34.3 32.1,32.4 30.5,31.3 
					28.6,31.6 				"/>
			</g>
		</g>
	</g>
</g>
</svg>
